<svg width="170" height="170" viewBox="0 0 170 170" fill="none" xmlns="http://www.w3.org/2000/svg">
<g id="Icone Alto">
<path id="Vector" d="M154.062 148.75C152.248 148.745 150.45 148.418 148.75 147.783V147.751C146.261 146.697 144.011 145.15 142.137 143.202C140.262 141.255 138.802 138.947 137.843 136.42C137.508 135.355 136.836 134.428 135.929 133.778C135.022 133.127 133.928 132.789 132.812 132.813C131.698 132.818 130.614 133.171 129.71 133.822C128.806 134.474 128.128 135.391 127.771 136.446C126.595 139.874 124.425 142.874 121.539 145.065C118.653 147.256 115.18 148.538 111.562 148.75C107.94 148.537 104.464 147.251 101.575 145.055C98.6869 142.859 96.5174 139.853 95.3434 136.42C94.994 135.364 94.3189 134.446 93.4149 133.798C92.5109 133.149 91.4248 132.805 90.3125 132.813C89.1984 132.818 88.1138 133.171 87.21 133.822C86.3062 134.474 85.6283 135.391 85.2709 136.446C84.0945 139.874 81.9252 142.874 79.039 145.065C76.1527 147.256 72.68 148.538 69.0625 148.75C65.4404 148.537 61.9637 147.251 59.0753 145.055C56.1868 142.859 54.0174 139.853 52.8434 136.42C52.4864 135.366 51.8073 134.45 50.9019 133.803C49.9966 133.155 48.9107 132.808 47.7976 132.811C46.6846 132.814 45.6006 133.167 44.6986 133.819C43.7967 134.471 43.1224 135.39 42.7709 136.446C41.5945 139.874 39.4252 142.874 36.539 145.065C33.6527 147.256 30.18 148.538 26.5625 148.75H10.625V159.375H26.5625C30.6853 159.412 34.7584 158.475 38.4509 156.64C42.1433 154.806 45.3508 152.126 47.8125 148.819C50.2997 152.099 53.5124 154.759 57.199 156.59C60.8857 158.421 64.9462 159.374 69.0625 159.374C73.1788 159.374 77.2393 158.421 80.926 156.59C84.6126 154.759 87.8253 152.099 90.3125 148.819C92.7997 152.099 96.0124 154.759 99.6991 156.59C103.386 158.421 107.446 159.374 111.562 159.374C115.679 159.374 119.739 158.421 123.426 156.59C127.113 154.759 130.325 152.099 132.812 148.819C135.771 152.642 139.69 155.612 144.171 157.425C147.307 158.722 150.669 159.385 154.062 159.375H159.375V148.75H154.062Z" fill="#182135"/>
<path id="Vector_2" d="M158.908 79.3422L125.524 17.9085C125.194 17.3129 124.71 16.8166 124.124 16.471C123.537 16.1254 122.869 15.9431 122.188 15.9431C121.507 15.9431 120.838 16.1254 120.252 16.471C119.665 16.8166 119.182 17.3129 118.851 17.9085L85.4677 79.3422C85.1497 79.9248 84.9887 80.58 85.0006 81.2436C85.0125 81.9072 85.1969 82.5563 85.5356 83.127C85.8743 83.6978 86.3557 84.1706 86.9325 84.499C87.5092 84.8274 88.1615 85.0001 88.8252 85H155.55C156.213 84.9991 156.865 84.8258 157.441 84.497C158.017 84.1683 158.498 83.6954 158.836 83.1248C159.174 82.5542 159.358 81.9054 159.37 81.2423C159.381 80.5791 159.22 79.9244 158.902 79.3422H158.908ZM118.203 37.1875H126.172V58.4375H118.203V37.1875ZM122.188 74.375C121.137 74.375 120.11 74.0634 119.236 73.4797C118.363 72.896 117.682 72.0663 117.28 71.0955C116.878 70.1248 116.772 69.0566 116.977 68.0261C117.182 66.9956 117.688 66.049 118.431 65.306C119.174 64.5631 120.121 64.0571 121.151 63.8521C122.182 63.6471 123.25 63.7523 124.221 64.1544C125.191 64.5565 126.021 65.2374 126.605 66.1111C127.189 66.9847 127.5 68.0118 127.5 69.0625C127.5 70.4715 126.941 71.8227 125.944 72.819C124.948 73.8153 123.597 74.375 122.188 74.375Z" fill="#C8575E"/>
<path id="Vector_3" d="M148.75 111.562V95.625H138.125V111.562H132.812C129.195 111.351 125.722 110.068 122.836 107.877C119.95 105.686 117.78 102.686 116.604 99.2588C116.253 98.2026 115.578 97.2836 114.676 96.6314C113.774 95.9791 112.69 95.6267 111.577 95.6237C110.464 95.6208 109.378 95.9675 108.473 96.615C107.568 97.2625 106.889 98.1779 106.532 99.2322C105.358 102.665 103.188 105.671 100.3 107.867C97.4113 110.063 93.9346 111.349 90.3125 111.562C86.695 111.351 83.2223 110.068 80.336 107.877C77.4498 105.686 75.2805 102.686 74.1041 99.2588C73.7467 98.2035 73.0688 97.2861 72.165 96.6347C71.2612 95.9833 70.1766 95.6303 69.0625 95.625C67.9502 95.617 66.8641 95.9619 65.9601 96.61C65.0561 97.2581 64.381 98.1762 64.0316 99.2322C62.8576 102.665 60.6882 105.671 57.7997 107.867C54.9113 110.063 51.4346 111.349 47.8125 111.562C44.31 111.402 40.9319 110.216 38.0983 108.151C35.2646 106.087 33.1005 103.234 31.875 99.9494V64.0741L85 22.6897L98.4566 33.1872L103.599 23.7203L88.2513 11.7619C87.3086 11.0269 86.1475 10.6278 84.9522 10.6278C83.7569 10.6278 82.5958 11.0269 81.6531 11.7619L5.3125 71.2884L11.9159 79.6397L21.25 72.3616V99.9228C20.2665 102.309 18.8217 104.477 16.9984 106.303C15.1751 108.129 13.0092 109.577 10.625 110.564V121.635C16.9809 120.359 22.65 116.801 26.5625 111.632C29.0497 114.912 32.2624 117.571 35.949 119.402C39.6357 121.233 43.6962 122.186 47.8125 122.186C51.9288 122.186 55.9893 121.233 59.676 119.402C63.3626 117.571 66.5753 114.912 69.0625 111.632C71.5497 114.912 74.7624 117.571 78.449 119.402C82.1357 121.233 86.1962 122.186 90.3125 122.186C94.4288 122.186 98.4893 121.233 102.176 119.402C105.863 117.571 109.075 114.912 111.562 111.632C114.024 114.939 117.232 117.619 120.924 119.453C124.617 121.287 128.69 122.224 132.812 122.187H159.375V111.562H148.75Z" fill="#182135"/>
</g>
</svg>
