<svg width="95" height="96" viewBox="0 0 95 96" fill="none" xmlns="http://www.w3.org/2000/svg">
<path d="M50.0849 51.5761V15.8696C50.0849 12.5025 48.7473 9.27332 46.3664 6.89242C43.9855 4.51152 40.7564 3.17395 37.3893 3.17395C34.0222 3.17395 30.793 4.51152 28.4121 6.89242C26.0312 9.27332 24.6936 12.5025 24.6936 15.8696V51.5761C20.812 54.279 17.8942 58.1501 16.365 62.626C14.8358 67.1019 14.775 71.9491 16.1914 76.462C17.6078 80.9749 20.4276 84.918 24.2402 87.7174C28.0528 90.5167 32.6593 92.0263 37.3893 92.0263C42.1192 92.0263 46.7257 90.5167 50.5384 87.7174C54.351 84.918 57.1707 80.9749 58.5871 76.462C60.0035 71.9491 59.9427 67.1019 58.4135 62.626C56.8843 58.1501 53.9666 54.279 50.0849 51.5761ZM37.3893 79.3479C35.506 79.3479 33.6651 78.7894 32.0993 77.7432C30.5334 76.6969 29.313 75.2098 28.5923 73.4699C27.8716 71.7301 27.6831 69.8156 28.0505 67.9685C28.4179 66.1215 29.3247 64.4249 30.6564 63.0932C31.988 61.7616 33.6846 60.8547 35.5317 60.4873C37.3787 60.1199 39.2932 60.3085 41.0331 61.0292C42.7729 61.7499 44.26 62.9703 45.3063 64.5361C46.3526 66.102 46.911 67.9429 46.911 69.8261C46.911 72.3514 45.9078 74.7733 44.1222 76.559C42.3365 78.3447 39.9146 79.3479 37.3893 79.3479Z" fill="#B7DEEB"/>
<path d="M72.8913 19.0435C70.6942 19.0435 68.5465 19.695 66.7196 20.9156C64.8928 22.1363 63.469 23.8712 62.6282 25.9011C61.7874 27.9309 61.5674 30.1645 61.9961 32.3194C62.4247 34.4742 63.4827 36.4536 65.0363 38.0072C66.5898 39.5608 68.5692 40.6188 70.7241 41.0474C72.879 41.4761 75.1126 41.2561 77.1424 40.4153C79.1723 39.5745 80.9072 38.1506 82.1278 36.3238C83.3485 34.497 84 32.3493 84 30.1522C84 27.206 82.8296 24.3804 80.7463 22.2971C78.6631 20.2139 75.8375 19.0435 72.8913 19.0435ZM72.8913 34.913C71.9497 34.913 71.0292 34.6338 70.2463 34.1107C69.4634 33.5876 68.8532 32.844 68.4928 31.9741C68.1325 31.1041 68.0382 30.1469 68.2219 29.2234C68.4056 28.2999 68.859 27.4515 69.5249 26.7857C70.1907 26.1199 71.039 25.6665 71.9625 25.4828C72.886 25.2991 73.8433 25.3934 74.7132 25.7537C75.5831 26.114 76.3267 26.7243 76.8498 27.5072C77.373 28.2901 77.6522 29.2106 77.6522 30.1522C77.6522 31.4148 77.1506 32.6258 76.2577 33.5186C75.3649 34.4115 74.154 34.913 72.8913 34.913ZM39.5652 57.5272V31.7391C39.5652 30.8974 39.2308 30.0901 38.6356 29.4948C38.0404 28.8996 37.2331 28.5652 36.3913 28.5652C35.5495 28.5652 34.7422 28.8996 34.147 29.4948C33.5518 30.0901 33.2174 30.8974 33.2174 31.7391V57.5272C30.2255 58.2997 27.618 60.1369 25.8837 62.6943C24.1495 65.2518 23.4075 68.354 23.7968 71.4194C24.1862 74.4848 25.6802 77.303 27.9987 79.3457C30.3173 81.3884 33.3013 82.5153 36.3913 82.5153C39.4813 82.5153 42.4653 81.3884 44.7839 79.3457C47.1024 77.303 48.5964 74.4848 48.9858 71.4194C49.3751 68.354 48.6331 65.2518 46.8989 62.6943C45.1646 60.1369 42.5571 58.2997 39.5652 57.5272ZM36.3913 76.1739C35.1358 76.1739 33.9085 75.8016 32.8646 75.1041C31.8207 74.4066 31.0071 73.4152 30.5267 72.2553C30.0462 71.0954 29.9205 69.819 30.1655 68.5877C30.4104 67.3563 31.015 66.2253 31.9027 65.3375C32.7905 64.4497 33.9215 63.8452 35.1529 63.6002C36.3843 63.3553 37.6606 63.481 38.8205 63.9615C39.9804 64.4419 40.9718 65.2555 41.6693 66.2994C42.3668 67.3433 42.7391 68.5706 42.7391 69.8261C42.7391 71.5096 42.0703 73.1242 40.8799 74.3147C39.6894 75.5051 38.0749 76.1739 36.3913 76.1739ZM52.2609 49.9891V15.8696C52.2609 11.6607 50.5889 7.62421 47.6128 4.64809C44.6367 1.67197 40.6002 0 36.3913 0C32.1824 0 28.1459 1.67197 25.1698 4.64809C22.1937 7.62421 20.5217 11.6607 20.5217 15.8696V49.9891C16.4152 53.277 13.4312 57.7592 11.9822 62.8164C10.5332 67.8735 10.6907 73.2559 12.433 78.2196C14.1753 83.1833 17.4163 87.4834 21.7081 90.5255C25.9999 93.5676 31.1307 95.2015 36.3913 95.2015C41.6519 95.2015 46.7827 93.5676 51.0745 90.5255C55.3663 87.4834 58.6073 83.1833 60.3496 78.2196C62.0919 73.2559 62.2494 67.8735 60.8004 62.8164C59.3514 57.7592 56.3674 53.277 52.2609 49.9891ZM36.3913 88.8696C32.3364 88.8699 28.3873 87.5759 25.1188 85.176C21.8504 82.7761 19.4333 79.3956 18.2195 75.5266C17.0057 71.6577 17.0585 67.5023 18.3703 63.6654C19.6821 59.8286 22.1843 56.5106 25.5127 54.1946C25.9339 53.9005 26.2774 53.5086 26.5137 53.0525C26.7501 52.5964 26.8722 52.0898 26.8696 51.5761V15.8696C26.8696 13.3442 27.8727 10.9224 29.6584 9.13668C31.4441 7.35101 33.866 6.34783 36.3913 6.34783C38.9166 6.34783 41.3385 7.35101 43.1242 9.13668C44.9099 10.9224 45.913 13.3442 45.913 15.8696V51.5761C45.913 52.0871 46.0363 52.5905 46.2726 53.0437C46.5088 53.4968 46.8509 53.8862 47.2699 54.1787C50.6052 56.4923 53.114 59.8112 54.4303 63.6511C55.7465 67.491 55.8013 71.651 54.5867 75.5243C53.3721 79.3975 50.9517 82.7813 47.6784 85.1821C44.4052 87.5828 40.4505 88.8748 36.3913 88.8696Z" fill="#182135"/>
</svg>
