<svg width="95" height="95" viewBox="0 0 95 95" fill="none" xmlns="http://www.w3.org/2000/svg">
<path d="M47.6788 51.467V15.836C47.6788 12.476 46.3894 9.25369 44.0943 6.87784C41.7992 4.50198 38.6863 3.16724 35.4405 3.16724C32.1947 3.16724 29.0818 4.50198 26.7867 6.87784C24.4916 9.25369 23.2022 12.476 23.2022 15.836V51.467C19.4604 54.1641 16.6477 58.027 15.1736 62.4934C13.6995 66.9599 13.6409 71.7968 15.0063 76.3002C16.3717 80.8035 19.0898 84.7383 22.7651 87.5317C26.4404 90.3251 30.8809 91.8315 35.4405 91.8315C40.0001 91.8315 44.4407 90.3251 48.1159 87.5317C51.7912 84.7383 54.5094 80.8035 55.8747 76.3002C57.2401 71.7968 57.1815 66.9599 55.7074 62.4934C54.2333 58.027 51.4207 54.1641 47.6788 51.467ZM35.4405 79.1799C33.6251 79.1799 31.8505 78.6227 30.3411 77.5786C28.8316 76.5346 27.6552 75.0506 26.9605 73.3144C26.2657 71.5782 26.084 69.6678 26.4381 67.8247C26.7923 65.9815 27.6665 64.2885 28.9502 62.9597C30.2338 61.6309 31.8693 60.7259 33.6498 60.3593C35.4303 59.9927 37.2759 60.1809 38.9531 60.9C40.6303 61.6192 42.0638 62.837 43.0724 64.3995C44.0809 65.9621 44.6192 67.7991 44.6192 69.6783C44.6192 72.1983 43.6522 74.6151 41.9309 76.397C40.2095 78.1789 37.8749 79.1799 35.4405 79.1799Z" fill="#C8575E"/>
<path d="M37.5362 57.4054V31.6719C37.5362 30.832 37.2139 30.0264 36.6401 29.4324C36.0663 28.8384 35.2881 28.5048 34.4767 28.5048C33.6652 28.5048 32.887 28.8384 32.3132 29.4324C31.7394 30.0264 31.4171 30.832 31.4171 31.6719V57.4054C28.5329 58.1763 26.0194 60.0096 24.3476 62.5616C22.6758 65.1137 21.9605 68.2093 22.3359 71.2682C22.7112 74.3271 24.1514 77.1393 26.3864 79.1777C28.6215 81.2161 31.4979 82.3407 34.4767 82.3407C37.4554 82.3407 40.3319 81.2161 42.5669 79.1777C44.8019 77.1393 46.2421 74.3271 46.6174 71.2682C46.9928 68.2093 46.2775 65.1137 44.6057 62.5616C42.9339 60.0096 40.4204 58.1763 37.5362 57.4054ZM34.4767 76.0127C33.2664 76.0127 32.0833 75.6412 31.077 74.9451C30.0707 74.2491 29.2864 73.2598 28.8233 72.1023C28.3601 70.9449 28.239 69.6713 28.4751 68.4425C28.7112 67.2138 29.294 66.0851 30.1498 65.1992C31.0055 64.3133 32.0959 63.71 33.2829 63.4656C34.4699 63.2212 35.7002 63.3466 36.8184 63.8261C37.9365 64.3055 38.8922 65.1174 39.5645 66.1591C40.2369 67.2008 40.5958 68.4255 40.5958 69.6783C40.5958 71.3583 39.9511 72.9694 38.8036 74.1574C37.656 75.3453 36.0996 76.0127 34.4767 76.0127ZM49.7746 49.8833V15.836C49.7746 11.636 48.1628 7.60807 45.2939 4.63825C42.425 1.66843 38.5339 0 34.4767 0C30.4194 0 26.5283 1.66843 23.6594 4.63825C20.7905 7.60807 19.1787 11.636 19.1787 15.836V49.8833C15.2201 53.1642 12.3436 57.637 10.9468 62.6834C9.55001 67.7298 9.70186 73.1008 11.3814 78.054C13.0609 83.0072 16.1851 87.2982 20.3224 90.3338C24.4596 93.3695 29.4055 95 34.4767 95C39.5478 95 44.4937 93.3695 48.6309 90.3338C52.7682 87.2982 55.8924 83.0072 57.5719 78.054C59.2514 73.1008 59.4033 67.7298 58.0065 62.6834C56.6097 57.637 53.7332 53.1642 49.7746 49.8833ZM34.4767 88.6815C30.5678 88.6818 26.7609 87.3905 23.6102 84.9957C20.4595 82.6009 18.1295 79.2275 16.9594 75.3668C15.7893 71.506 15.8403 67.3594 17.1048 63.5307C18.3693 59.7019 20.7814 56.391 23.9899 54.0799C24.3959 53.7864 24.7271 53.3953 24.9549 52.9402C25.1827 52.4851 25.3004 51.9795 25.2979 51.4669V15.836C25.2979 13.316 26.265 10.8992 27.9863 9.11734C29.7076 7.33545 32.0423 6.33439 34.4767 6.33439C36.911 6.33439 39.2457 7.33545 40.967 9.11734C42.6884 10.8992 43.6554 13.316 43.6554 15.836V51.4669C43.6553 51.9768 43.7742 52.4792 44.002 52.9314C44.2297 53.3835 44.5595 53.7721 44.9634 54.064C48.1786 56.3727 50.597 59.6846 51.8658 63.5164C53.1346 67.3481 53.1875 71.4994 52.0166 75.3644C50.8458 79.2295 48.5125 82.6061 45.3572 85.0018C42.2019 87.3974 38.3897 88.6867 34.4767 88.6815Z" fill="#182135"/>
<path d="M79.9038 33.3889C79.9038 42.2778 72.1992 44.5 68.3467 44.5C64.976 44.5 58.2344 42.2778 58.2344 33.3889C58.2344 29.9119 60.0973 27.5767 61.8799 26.2432C62.8722 25.5009 64.1366 26.24 64.2638 27.4575L64.3732 28.5048C64.5064 29.7801 65.6903 30.8258 66.7866 30.1271C68.9337 28.7588 69.7064 25.469 69.7064 23.6667V23.2621C69.7064 21.475 71.5468 20.3248 73.0235 21.3721C76.2905 23.6891 79.9038 27.7303 79.9038 33.3889Z" fill="#C8575E" stroke="#1C274C" stroke-width="3"/>
<path d="M64.6094 40.0556C64.6094 43.6111 67.7819 44.5 69.3681 44.5C70.7561 44.5 73.5321 43.6111 73.5321 40.0556C73.5321 38.6794 72.7809 37.7503 72.054 37.2141C71.5466 36.84 70.8333 37.176 70.6588 37.7745C70.4314 38.5546 69.6097 39.045 69.1911 38.3449C68.8083 37.7048 68.8083 36.7446 68.8083 36.1668C68.8083 35.371 67.9922 34.8559 67.3358 35.3236C66.0198 36.2614 64.6094 37.8519 64.6094 40.0556Z" fill="#FBDAA9" stroke="#1C274C" stroke-width="2"/>
</svg>
