<svg width="95" height="96" viewBox="0 0 95 96" fill="none" xmlns="http://www.w3.org/2000/svg">
<path d="M52.0849 51.5761V15.8696C52.0849 12.5025 50.7473 9.27332 48.3664 6.89242C45.9855 4.51152 42.7564 3.17395 39.3893 3.17395C36.0222 3.17395 32.793 4.51152 30.4121 6.89242C28.0312 9.27332 26.6936 12.5025 26.6936 15.8696V51.5761C22.812 54.279 19.8942 58.1501 18.365 62.626C16.8358 67.1019 16.775 71.9491 18.1914 76.462C19.6078 80.9749 22.4276 84.918 26.2402 87.7174C30.0528 90.5167 34.6593 92.0263 39.3893 92.0263C44.1192 92.0263 48.7257 90.5167 52.5384 87.7174C56.351 84.918 59.1707 80.9749 60.5871 76.462C62.0035 71.9491 61.9427 67.1019 60.4135 62.626C58.8843 58.1501 55.9666 54.279 52.0849 51.5761ZM39.3893 79.3479C37.506 79.3479 35.6651 78.7894 34.0993 77.7432C32.5334 76.6969 31.313 75.2098 30.5923 73.4699C29.8716 71.7301 29.6831 69.8156 30.0505 67.9685C30.4179 66.1215 31.3247 64.4249 32.6564 63.0932C33.988 61.7616 35.6846 60.8547 37.5317 60.4873C39.3787 60.1199 41.2932 60.3085 43.0331 61.0292C44.7729 61.7499 46.26 62.9703 47.3063 64.5361C48.3526 66.102 48.911 67.9429 48.911 69.8261C48.911 72.3514 47.9078 74.7733 46.1222 76.559C44.3365 78.3447 41.9146 79.3479 39.3893 79.3479Z" fill="#4AA8C7"/>
<path d="M41.5652 57.5272V31.7391C41.5652 30.8974 41.2308 30.0901 40.6356 29.4948C40.0404 28.8996 39.2331 28.5652 38.3913 28.5652C37.5495 28.5652 36.7422 28.8996 36.147 29.4948C35.5518 30.0901 35.2174 30.8974 35.2174 31.7391V57.5272C32.2255 58.2997 29.618 60.1369 27.8837 62.6943C26.1495 65.2518 25.4075 68.354 25.7968 71.4194C26.1862 74.4848 27.6802 77.303 29.9987 79.3457C32.3173 81.3884 35.3013 82.5153 38.3913 82.5153C41.4813 82.5153 44.4653 81.3884 46.7839 79.3457C49.1024 77.303 50.5964 74.4848 50.9858 71.4194C51.3751 68.354 50.6331 65.2518 48.8989 62.6943C47.1646 60.1369 44.5571 58.2997 41.5652 57.5272ZM38.3913 76.1739C37.1358 76.1739 35.9085 75.8016 34.8646 75.1041C33.8207 74.4066 33.0071 73.4152 32.5267 72.2553C32.0462 71.0954 31.9205 69.819 32.1655 68.5877C32.4104 67.3563 33.015 66.2253 33.9027 65.3375C34.7905 64.4497 35.9215 63.8452 37.1529 63.6002C38.3843 63.3553 39.6606 63.481 40.8205 63.9615C41.9804 64.4419 42.9718 65.2555 43.6693 66.2994C44.3668 67.3433 44.7391 68.5706 44.7391 69.8261C44.7391 71.5096 44.0703 73.1242 42.8799 74.3147C41.6894 75.5051 40.0749 76.1739 38.3913 76.1739ZM54.2609 49.9891V15.8696C54.2609 11.6607 52.5889 7.62421 49.6128 4.64809C46.6367 1.67197 42.6002 0 38.3913 0C34.1824 0 30.1459 1.67197 27.1698 4.64809C24.1937 7.62421 22.5217 11.6607 22.5217 15.8696V49.9891C18.4152 53.277 15.4312 57.7592 13.9822 62.8164C12.5332 67.8735 12.6907 73.2559 14.433 78.2196C16.1753 83.1833 19.4163 87.4834 23.7081 90.5255C27.9999 93.5676 33.1307 95.2015 38.3913 95.2015C43.6519 95.2015 48.7827 93.5676 53.0745 90.5255C57.3663 87.4834 60.6073 83.1833 62.3496 78.2196C64.0919 73.2559 64.2494 67.8735 62.8004 62.8164C61.3514 57.7592 58.3674 53.277 54.2609 49.9891ZM38.3913 88.8696C34.3364 88.8699 30.3873 87.5759 27.1188 85.176C23.8504 82.7761 21.4333 79.3956 20.2195 75.5266C19.0057 71.6577 19.0585 67.5023 20.3703 63.6654C21.6821 59.8286 24.1843 56.5106 27.5127 54.1946C27.9339 53.9005 28.2774 53.5086 28.5137 53.0525C28.7501 52.5964 28.8722 52.0898 28.8696 51.5761V15.8696C28.8696 13.3442 29.8727 10.9224 31.6584 9.13668C33.4441 7.35101 35.866 6.34783 38.3913 6.34783C40.9166 6.34783 43.3385 7.35101 45.1242 9.13668C46.9099 10.9224 47.913 13.3442 47.913 15.8696V51.5761C47.913 52.0871 48.0363 52.5905 48.2726 53.0437C48.5088 53.4968 48.8509 53.8862 49.2699 54.1787C52.6052 56.4923 55.114 59.8112 56.4303 63.6511C57.7465 67.491 57.8013 71.651 56.5867 75.5243C55.3721 79.3975 52.9517 82.7813 49.6784 85.1821C46.4052 87.5828 42.4505 88.8748 38.3913 88.8696Z" fill="#182135"/>
<path d="M72 19V36.6M72 36.6V41M72 36.6L75 39.9M72 36.6L69 39.9M75 20.1L72 23.4L69 20.1" stroke="#4AA8C7" stroke-width="2" stroke-linecap="round"/>
<path d="M62.6821 24.3647L66.4093 26.6188M66.4093 26.6188L77.5907 33.3812M66.4093 26.6188L65.2278 22M66.4093 26.6188L62 27.8564M77.5907 33.3812L81.3179 35.6353M77.5907 33.3812L82 32.1435M77.5907 33.3812L78.7722 38" stroke="#4AA8C7" stroke-width="2" stroke-linecap="round"/>
<path d="M81.3179 24.3647L77.5907 26.6188M77.5907 26.6188L66.4093 33.3812M77.5907 26.6188L78.7722 22M77.5907 26.6188L82 27.8564M66.4093 33.3812L62.6821 35.6353M66.4093 33.3812L62 32.1435M66.4093 33.3812L65.2278 38" stroke="#4AA8C7" stroke-width="2" stroke-linecap="round"/>
</svg>
