<svg width="81" height="101" viewBox="0 0 81 101" fill="none" xmlns="http://www.w3.org/2000/svg">
<path d="M15.953 76L8 78.3059L15.7397 88.5553C41.7493 101.622 41.7493 102.006 66.3656 88.5553L72 78.3059L66.5789 76C66.5789 76 62.8632 79.0297 58.6831 79.0297C54.503 79.0297 50.7873 76 50.7873 76C50.7873 76 47.0716 79.0297 41.9626 79.0297C36.8536 79.0297 33.6024 76 33.6024 76C33.6024 76 30.3512 79.0297 25.2421 79.0297C20.1331 79.0297 15.953 76 15.953 76Z" fill="#7CB073" fill-opacity="0.6" stroke="#182135"/>
<path d="M78 54.2085C78 78.3955 61.21 98 40.5 98C19.79 98 3 78.3955 3 54.2085C3 40.9418 14.28 23.7862 24.4675 10.9951C32.9575 0.334963 48.0425 0.334963 56.5325 10.9951C66.72 23.7862 78 40.9418 78 54.2085Z" stroke="#182135" stroke-width="5"/>
<path d="M61 64.5C61 60.4615 57.6421 57 53.5 57C49.3579 57 46 60.4615 46 64.5C46 68.5385 49.4615 72 53.5 72C57.5385 72 61 68.5385 61 64.5Z" stroke="#182135" stroke-width="5"/>
<path d="M31 72L51 42" stroke="#182135" stroke-width="5"/>
<path d="M36 49.5C36 45.4615 32.6421 42 28.5 42C24.3579 42 21 45.4615 21 49.5C21 53.5385 24.4615 57 28.5 57C32.5385 57 36 53.5385 36 49.5Z" stroke="#182135" stroke-width="5"/>
</svg>
