<svg width="81" height="101" viewBox="0 0 81 101" fill="none" xmlns="http://www.w3.org/2000/svg">
<path d="M13.2092 49L4.49991 52C0.503601 60.5 5.50241 70 13.2092 85.5C41.6922 102.5 41.6922 103 68.6493 85.5C75.9519 70.5 80.0017 65.5 75.9517 52.9416L68.6493 49C68.6493 49 64.5803 52.9416 60.0027 52.9416C55.425 52.9416 51.356 49 51.356 49C51.356 49 47.287 52.9416 41.6922 52.9416C36.0973 52.9416 32.5369 49 32.5369 49C32.5369 49 28.9765 52.9416 23.3817 52.9416C17.7868 52.9416 13.2092 49 13.2092 49Z" fill="#D69255" fill-opacity="0.6" stroke="#182135"/>
<path d="M78 54.2085C78 78.3955 61.21 98 40.5 98C19.79 98 3 78.3955 3 54.2085C3 40.9418 14.28 23.7862 24.4675 10.9951C32.9575 0.334963 48.0425 0.334963 56.5325 10.9951C66.72 23.7862 78 40.9418 78 54.2085Z" stroke="#182135" stroke-width="5"/>
<path d="M61 64.5C61 60.4615 57.6421 57 53.5 57C49.3579 57 46 60.4615 46 64.5C46 68.5385 49.4615 72 53.5 72C57.5385 72 61 68.5385 61 64.5Z" stroke="#182135" stroke-width="5"/>
<path d="M31 72L51 42" stroke="#182135" stroke-width="5"/>
<path d="M36 49.5C36 45.4615 32.6421 42 28.5 42C24.3579 42 21 45.4615 21 49.5C21 53.5385 24.4615 57 28.5 57C32.5385 57 36 53.5385 36 49.5Z" stroke="#182135" stroke-width="5"/>
</svg>
