<svg width="81" height="101" viewBox="0 0 81 101" fill="none" xmlns="http://www.w3.org/2000/svg">
<path d="M21.7827 21L15.998 26C5.49942 34.5 -7.50053 61.5 15.998 88C28.5882 99 47.3036 101.5 64.9978 88C88.4986 59.5 73.9977 33.5 64.9973 26L58.8729 21C58.8729 21 56.1507 26 53.0882 26C50.0257 26 47.3035 21 47.3035 21C47.3035 21 44.5813 26 40.8382 26C37.0952 26 34.7132 21 34.7132 21C34.7132 21 32.3313 26 28.5882 26C24.8452 26 21.7827 21 21.7827 21Z" fill="#C8575E" fill-opacity="0.6" stroke="#182135"/>
<path d="M78 54.2085C78 78.3955 61.21 98 40.5 98C19.79 98 3 78.3955 3 54.2085C3 40.9418 14.28 23.7862 24.4675 10.9951C32.9575 0.334963 48.0425 0.334963 56.5325 10.9951C66.72 23.7862 78 40.9418 78 54.2085Z" stroke="#182135" stroke-width="5"/>
<path d="M61 64.5C61 60.4615 57.6421 57 53.5 57C49.3579 57 46 60.4615 46 64.5C46 68.5385 49.4615 72 53.5 72C57.5385 72 61 68.5385 61 64.5Z" stroke="#182135" stroke-width="5"/>
<path d="M31 72L51 42" stroke="#182135" stroke-width="5"/>
<path d="M36 49.5C36 45.4615 32.6421 42 28.5 42C24.3579 42 21 45.4615 21 49.5C21 53.5385 24.4615 57 28.5 57C32.5385 57 36 53.5385 36 49.5Z" stroke="#182135" stroke-width="5"/>
</svg>
