<svg width="55" height="56" viewBox="0 0 55 56" fill="none" xmlns="http://www.w3.org/2000/svg">
<path d="M27.5 28C31.297 28 34.375 24.922 34.375 21.125C34.375 17.328 31.297 14.25 27.5 14.25C23.703 14.25 20.625 17.328 20.625 21.125C20.625 24.922 23.703 28 27.5 28Z" stroke="#5D5A88" stroke-width="1.5"/>
<path d="M27.5 50.9167C40.1565 50.9167 50.4167 40.6566 50.4167 28C50.4167 15.3435 40.1565 5.08337 27.5 5.08337C14.8435 5.08337 4.58333 15.3435 4.58333 28C4.58333 40.6566 14.8435 50.9167 27.5 50.9167Z" stroke="#5D5A88" stroke-width="1.5"/>
<path d="M41.1792 46.3333C40.8146 39.707 38.7858 34.875 27.4998 34.875C16.214 34.875 14.1852 39.707 13.8205 46.3333" stroke="#5D5A88" stroke-width="1.5" stroke-linecap="round"/>
</svg>
